<svg width="21" height="23" viewBox="0 0 21 23" fill="none" xmlns="http://www.w3.org/2000/svg">
<path d="M3.04537 22.1697C1.99537 20.3963 1.27204 18.553 0.875372 16.6397C0.502038 14.703 0.467038 12.8013 0.770372 10.9347C1.07371 9.04465 1.70371 7.24798 2.66037 5.54465C3.64037 3.81798 4.93537 2.26632 6.54537 0.889648L8.89037 2.32465C9.31037 2.58132 9.49704 2.90798 9.45037 3.30465C9.40371 3.70132 9.26371 4.02798 9.03037 4.28465C8.4937 4.93798 8.00371 5.76632 7.56037 6.76965C7.11704 7.77298 6.81371 8.88132 6.65037 10.0946C6.51037 11.308 6.55704 12.5797 6.79037 13.9097C7.02371 15.2397 7.52537 16.5463 8.29537 17.8297C8.66871 18.413 8.7737 18.938 8.61037 19.4047C8.47037 19.848 8.13204 20.163 7.59537 20.3497L3.04537 22.1697ZM14.2104 22.1697C13.1604 20.3963 12.437 18.553 12.0404 16.6397C11.667 14.703 11.632 12.8013 11.9354 10.9347C12.2387 9.04465 12.8687 7.24798 13.8254 5.54465C14.8054 3.81798 16.1004 2.26632 17.7104 0.889648L20.0554 2.32465C20.4754 2.58132 20.662 2.90798 20.6154 3.30465C20.5687 3.70132 20.4287 4.02798 20.1954 4.28465C19.6587 4.93798 19.1687 5.76632 18.7254 6.76965C18.282 7.77298 17.9787 8.88132 17.8154 10.0946C17.6754 11.308 17.722 12.5797 17.9554 13.9097C18.1887 15.2397 18.6904 16.5463 19.4604 17.8297C19.8337 18.413 19.9387 18.938 19.7754 19.4047C19.6354 19.848 19.297 20.163 18.7604 20.3497L14.2104 22.1697Z" fill="#C9B680"/>
</svg>
