<svg width="172" height="140" viewBox="0 0 172 140" fill="none" xmlns="http://www.w3.org/2000/svg">
<path d="M3 111C14.31 93.2827 26.5098 84.6874 47 80C68.2812 75.1316 80.2914 92.3078 102 90C132.25 86.7841 151.408 76.0783 170 52" stroke="#E9D6A1" stroke-width="4"/>
<line x1="45.5" y1="47" x2="45.5" y2="140" stroke="#C1C1C1" stroke-dasharray="2 2"/>
<circle cx="45.5" cy="82.5" r="8.5" fill="white" stroke="#B4943A" stroke-width="2"/>
<mask id="path-4-inside-1_0_1" fill="white">
<path fill-rule="evenodd" clip-rule="evenodd" d="M90 3C90 1.34315 88.6569 0 87 0H3C1.34315 0 0 1.34315 0 3V31C0 32.6569 1.34315 34 3 34H39.9333C40.8037 34 41.6313 34.3781 42.2011 35.036L44.2322 37.3814C45.4285 38.7628 47.5715 38.7628 48.7678 37.3814L50.7989 35.036C51.3687 34.3781 52.1963 34 53.0667 34H87C88.6569 34 90 32.6569 90 31V3Z"/>
</mask>
<path fill-rule="evenodd" clip-rule="evenodd" d="M90 3C90 1.34315 88.6569 0 87 0H3C1.34315 0 0 1.34315 0 3V31C0 32.6569 1.34315 34 3 34H39.9333C40.8037 34 41.6313 34.3781 42.2011 35.036L44.2322 37.3814C45.4285 38.7628 47.5715 38.7628 48.7678 37.3814L50.7989 35.036C51.3687 34.3781 52.1963 34 53.0667 34H87C88.6569 34 90 32.6569 90 31V3Z" fill="white"/>
<path d="M44.2322 37.3814L43.4763 38.036L44.2322 37.3814ZM48.7678 37.3814L48.0119 36.7267L48.7678 37.3814ZM42.2011 35.036L41.4452 35.6907L42.2011 35.036ZM3 1H87V-1H3V1ZM1 31V3H-1V31H1ZM39.9333 33H3V35H39.9333V33ZM44.9881 36.7267L42.957 34.3814L41.4452 35.6907L43.4763 38.036L44.9881 36.7267ZM50.043 34.3814L48.0119 36.7267L49.5237 38.036L51.5548 35.6907L50.043 34.3814ZM87 33H53.0667V35H87V33ZM89 3V31H91V3H89ZM87 35C89.2091 35 91 33.2091 91 31H89C89 32.1046 88.1046 33 87 33V35ZM51.5548 35.6907C51.9347 35.252 52.4864 35 53.0667 35V33C51.9061 33 50.8028 33.5041 50.043 34.3814L51.5548 35.6907ZM43.4763 38.036C45.0714 39.8779 47.9286 39.8779 49.5237 38.036L48.0119 36.7267C47.2143 37.6477 45.7857 37.6477 44.9881 36.7267L43.4763 38.036ZM39.9333 35C40.5136 35 41.0653 35.252 41.4452 35.6907L42.957 34.3814C42.1972 33.5041 41.0939 33 39.9333 33V35ZM-1 31C-1 33.2091 0.790863 35 3 35V33C1.89543 33 1 32.1046 1 31H-1ZM87 1C88.1046 1 89 1.89543 89 3H91C91 0.79086 89.2091 -1 87 -1V1ZM3 -1C0.790861 -1 -1 0.790862 -1 3H1C1 1.89543 1.89543 1 3 1V-1Z" fill="#C1C1C1" mask="url(#path-4-inside-1_0_1)"/>
</svg>
