<svg width="27" height="27" viewBox="0 0 27 27" fill="none" xmlns="http://www.w3.org/2000/svg">
<path d="M18 4.5H9C7.80653 4.5 6.66193 4.97411 5.81802 5.81802C4.97411 6.66193 4.5 7.80653 4.5 9V18C4.5 19.1935 4.97411 20.3381 5.81802 21.182C6.66193 22.0259 7.80653 22.5 9 22.5H18C19.1935 22.5 20.3381 22.0259 21.182 21.182C22.0259 20.3381 22.5 19.1935 22.5 18V9C22.5 7.80653 22.0259 6.66193 21.182 5.81802C20.3381 4.97411 19.1935 4.5 18 4.5Z" stroke="#C9B680" stroke-width="1.6875" stroke-linecap="round" stroke-linejoin="round"/>
<path d="M13.5 16.875C14.3951 16.875 15.2536 16.5194 15.8865 15.8865C16.5194 15.2536 16.875 14.3951 16.875 13.5C16.875 12.6049 16.5194 11.7464 15.8865 11.1135C15.2536 10.4806 14.3951 10.125 13.5 10.125C12.6049 10.125 11.7464 10.4806 11.1135 11.1135C10.4806 11.7464 10.125 12.6049 10.125 13.5C10.125 14.3951 10.4806 15.2536 11.1135 15.8865C11.7464 16.5194 12.6049 16.875 13.5 16.875Z" stroke="#C9B680" stroke-width="1.6875" stroke-linecap="round" stroke-linejoin="round"/>
</svg>
