<svg width="51" height="51" viewBox="0 0 51 51" fill="none" xmlns="http://www.w3.org/2000/svg">
<path d="M25.5 44.625C28.0115 44.625 30.4985 44.1303 32.8188 43.1692C35.1392 42.2081 37.2475 40.7993 39.0234 39.0234C40.7993 37.2475 42.2081 35.1392 43.1692 32.8188C44.1303 30.4985 44.625 28.0115 44.625 25.5C44.625 22.9885 44.1303 20.5015 43.1692 18.1812C42.2081 15.8608 40.7993 13.7525 39.0234 11.9766C37.2475 10.2007 35.1392 8.79192 32.8188 7.8308C30.4985 6.86968 28.0115 6.375 25.5 6.375C20.4277 6.375 15.5632 8.38995 11.9766 11.9766C8.38995 15.5632 6.375 20.4277 6.375 25.5C6.375 30.5723 8.38995 35.4368 11.9766 39.0234C15.5632 42.61 20.4277 44.625 25.5 44.625Z" stroke="black" stroke-width="1.6875" stroke-linecap="round" stroke-linejoin="round"/>
<path d="M31.45 19.1272C31.0651 18.4594 30.5058 17.9089 29.832 17.5346C29.1582 17.1603 28.3953 16.9762 27.625 17.0022H23.375C22.2478 17.0022 21.1668 17.4499 20.3698 18.247C19.5728 19.044 19.125 20.125 19.125 21.2522C19.125 22.3793 19.5728 23.4603 20.3698 24.2574C21.1668 25.0544 22.2478 25.5022 23.375 25.5022H27.625C28.7522 25.5022 29.8332 25.9499 30.6302 26.747C31.4272 27.544 31.875 28.625 31.875 29.7522C31.875 30.8793 31.4272 31.9603 30.6302 32.7574C29.8332 33.5544 28.7522 34.0022 27.625 34.0022H23.375C22.6047 34.0281 21.8418 33.8441 21.168 33.4697C20.4942 33.0954 19.9349 32.5449 19.55 31.8772" stroke="black" stroke-width="1.6875" stroke-linecap="round" stroke-linejoin="round"/>
<path d="M25.5 34V38.25M25.5 12.75V17" stroke="black" stroke-width="1.6875" stroke-linecap="round" stroke-linejoin="round"/>
</svg>
