<svg width="38" height="38" viewBox="0 0 38 38" fill="none" xmlns="http://www.w3.org/2000/svg">
<path d="M20.582 7.9165H33.2487" stroke="black" stroke-width="1.6875" stroke-linecap="round" stroke-linejoin="round"/>
<path d="M20.582 14.25H28.4987" stroke="black" stroke-width="1.6875" stroke-linecap="round" stroke-linejoin="round"/>
<path d="M20.582 23.75H33.2487" stroke="black" stroke-width="1.6875" stroke-linecap="round" stroke-linejoin="round"/>
<path d="M20.582 30.0835H28.4987" stroke="black" stroke-width="1.6875" stroke-linecap="round" stroke-linejoin="round"/>
<path d="M12.6667 6.33337H6.33333C5.91341 6.33337 5.51068 6.50019 5.21375 6.79712C4.91681 7.09405 4.75 7.49678 4.75 7.91671V14.25C4.75 14.67 4.91681 15.0727 5.21375 15.3696C5.51068 15.6666 5.91341 15.8334 6.33333 15.8334H12.6667C13.0866 15.8334 13.4893 15.6666 13.7863 15.3696C14.0832 15.0727 14.25 14.67 14.25 14.25V7.91671C14.25 7.49678 14.0832 7.09405 13.7863 6.79712C13.4893 6.50019 13.0866 6.33337 12.6667 6.33337Z" stroke="black" stroke-width="1.6875" stroke-linecap="round" stroke-linejoin="round"/>
<path d="M12.6667 22.1666H6.33333C5.91341 22.1666 5.51068 22.3334 5.21375 22.6304C4.91681 22.9273 4.75 23.33 4.75 23.75V30.0833C4.75 30.5032 4.91681 30.9059 5.21375 31.2029C5.51068 31.4998 5.91341 31.6666 6.33333 31.6666H12.6667C13.0866 31.6666 13.4893 31.4998 13.7863 31.2029C14.0832 30.9059 14.25 30.5032 14.25 30.0833V23.75C14.25 23.33 14.0832 22.9273 13.7863 22.6304C13.4893 22.3334 13.0866 22.1666 12.6667 22.1666Z" stroke="black" stroke-width="1.6875" stroke-linecap="round" stroke-linejoin="round"/>
</svg>
