<svg width="68" height="24" viewBox="0 0 68 24" fill="none" xmlns="http://www.w3.org/2000/svg">
<rect width="68" height="24" fill="#CDCDCD"/>
<g id="Landing Page" clip-path="url(#clip0_0_1)">
<rect width="1366" height="4743" transform="translate(-1196 -2811)" fill="white"/>
<g id="slider">
<path id="Arrow 1" d="M67.0607 13.0607C67.6464 12.4749 67.6464 11.5251 67.0607 10.9393L57.5147 1.3934C56.9289 0.807611 55.9792 0.807611 55.3934 1.3934C54.8076 1.97919 54.8076 2.92893 55.3934 3.51472L63.8787 12L55.3934 20.4853C54.8076 21.0711 54.8076 22.0208 55.3934 22.6066C55.9792 23.1924 56.9289 23.1924 57.5147 22.6066L67.0607 13.0607ZM40 13.5H66V10.5H40V13.5Z" fill="#D8BC6B"/>
<path id="Arrow 2" d="M0.939341 10.9393C0.353554 11.5251 0.353554 12.4749 0.93934 13.0607L10.4853 22.6066C11.0711 23.1924 12.0208 23.1924 12.6066 22.6066C13.1924 22.0208 13.1924 21.0711 12.6066 20.4853L4.12132 12L12.6066 3.51472C13.1924 2.92893 13.1924 1.97918 12.6066 1.3934C12.0208 0.80761 11.0711 0.80761 10.4853 1.3934L0.939341 10.9393ZM28 10.5L2 10.5L2 13.5L28 13.5L28 10.5Z" fill="#B8B8B8"/>
</g>
</g>
<defs>
<clipPath id="clip0_0_1">
<rect width="1366" height="4743" fill="white" transform="translate(-1196 -2811)"/>
</clipPath>
</defs>
</svg>
