<svg width="27" height="27" viewBox="0 0 27 27" fill="none" xmlns="http://www.w3.org/2000/svg">
<path d="M3.375 23.6236L5.23125 19.3486C3.81112 17.3327 3.1755 14.8678 3.44368 12.4165C3.71185 9.96517 4.86538 7.696 6.6878 6.0348C8.51021 4.37361 10.8762 3.43458 13.3418 3.39395C15.8074 3.35333 18.2031 4.21389 20.0792 5.81414C21.9554 7.41439 23.183 9.64432 23.5318 12.0854C23.8806 14.5266 23.3266 17.0111 21.9736 19.0727C20.6207 21.1343 18.5619 22.6314 16.1836 23.2828C13.8053 23.9343 11.271 23.6955 9.05625 22.6111L3.375 23.6236Z" stroke="#C9B680" stroke-width="1.6875" stroke-linecap="round" stroke-linejoin="round"/>
<path d="M10.125 11.25C10.125 11.3992 10.1843 11.5423 10.2898 11.6477C10.3952 11.7532 10.5383 11.8125 10.6875 11.8125C10.8367 11.8125 10.9798 11.7532 11.0852 11.6477C11.1907 11.5423 11.25 11.3992 11.25 11.25V10.125C11.25 9.97582 11.1907 9.83274 11.0852 9.72725C10.9798 9.62176 10.8367 9.5625 10.6875 9.5625C10.5383 9.5625 10.3952 9.62176 10.2898 9.72725C10.1843 9.83274 10.125 9.97582 10.125 10.125V11.25ZM10.125 11.25C10.125 12.7418 10.7176 14.1726 11.7725 15.2275C12.8274 16.2824 14.2582 16.875 15.75 16.875M15.75 16.875H16.875C17.0242 16.875 17.1673 16.8157 17.2727 16.7102C17.3782 16.6048 17.4375 16.4617 17.4375 16.3125C17.4375 16.1633 17.3782 16.0202 17.2727 15.9148C17.1673 15.8093 17.0242 15.75 16.875 15.75H15.75C15.6008 15.75 15.4577 15.8093 15.3523 15.9148C15.2468 16.0202 15.1875 16.1633 15.1875 16.3125C15.1875 16.4617 15.2468 16.6048 15.3523 16.7102C15.4577 16.8157 15.6008 16.875 15.75 16.875Z" stroke="#C9B680" stroke-width="1.6875" stroke-linecap="round" stroke-linejoin="round"/>
</svg>
