<svg width="90" height="90" viewBox="0 0 90 90" fill="none" xmlns="http://www.w3.org/2000/svg">
<g filter="url(#filter0_d_187_3603)">
<circle cx="45" cy="30" r="30" fill="#2E2E2E"/>
<path d="M34.375 39.6238L36.2313 35.3488C34.8111 33.3329 34.1755 30.868 34.4437 28.4167C34.7119 25.9654 35.8654 23.6962 37.6878 22.035C39.5102 20.3739 41.8762 19.4348 44.3418 19.3942C46.8074 19.3536 49.2031 20.2141 51.0792 21.8144C52.9554 23.4146 54.183 25.6446 54.5318 28.0857C54.8806 30.5268 54.3266 33.0113 52.9736 35.073C51.6207 37.1346 49.5619 38.6316 47.1836 39.2831C44.8053 39.9346 42.271 39.6957 40.0563 38.6113L34.375 39.6238Z" stroke="#EDDEAB" stroke-width="1.6875" stroke-linecap="round" stroke-linejoin="round"/>
<path d="M41.125 27.25C41.125 27.3992 41.1843 27.5423 41.2898 27.6477C41.3952 27.7532 41.5383 27.8125 41.6875 27.8125C41.8367 27.8125 41.9798 27.7532 42.0852 27.6477C42.1907 27.5423 42.25 27.3992 42.25 27.25V26.125C42.25 25.9758 42.1907 25.8327 42.0852 25.7273C41.9798 25.6218 41.8367 25.5625 41.6875 25.5625C41.5383 25.5625 41.3952 25.6218 41.2898 25.7273C41.1843 25.8327 41.125 25.9758 41.125 26.125V27.25ZM41.125 27.25C41.125 28.7418 41.7176 30.1726 42.7725 31.2275C43.8274 32.2824 45.2582 32.875 46.75 32.875M46.75 32.875H47.875C48.0242 32.875 48.1673 32.8157 48.2727 32.7102C48.3782 32.6048 48.4375 32.4617 48.4375 32.3125C48.4375 32.1633 48.3782 32.0202 48.2727 31.9148C48.1673 31.8093 48.0242 31.75 47.875 31.75H46.75C46.6008 31.75 46.4577 31.8093 46.3523 31.9148C46.2468 32.0202 46.1875 32.1633 46.1875 32.3125C46.1875 32.4617 46.2468 32.6048 46.3523 32.7102C46.4577 32.8157 46.6008 32.875 46.75 32.875Z" stroke="#EDDEAB" stroke-width="1.6875" stroke-linecap="round" stroke-linejoin="round"/>
</g>
<defs>
<filter id="filter0_d_187_3603" x="0" y="0" width="90" height="90" filterUnits="userSpaceOnUse" color-interpolation-filters="sRGB">
<feFlood flood-opacity="0" result="BackgroundImageFix"/>
<feColorMatrix in="SourceAlpha" type="matrix" values="0 0 0 0 0 0 0 0 0 0 0 0 0 0 0 0 0 0 127 0" result="hardAlpha"/>
<feOffset dy="15"/>
<feGaussianBlur stdDeviation="7.5"/>
<feComposite in2="hardAlpha" operator="out"/>
<feColorMatrix type="matrix" values="0 0 0 0 0 0 0 0 0 0 0 0 0 0 0 0 0 0 0.05 0"/>
<feBlend mode="normal" in2="BackgroundImageFix" result="effect1_dropShadow_187_3603"/>
<feBlend mode="normal" in="SourceGraphic" in2="effect1_dropShadow_187_3603" result="shape"/>
</filter>
</defs>
</svg>
